<?xml version="1.0" standalone="no"?>
<!DOCTYPE svg PUBLIC "-//W3C//DTD SVG 20010904//EN"
 "http://www.w3.org/TR/2001/REC-SVG-20010904/DTD/svg10.dtd">
<svg version="1.0" xmlns="http://www.w3.org/2000/svg"
 width="246.000000pt" height="56.000000pt" viewBox="0 0 246.000000 56.000000"
 preserveAspectRatio="xMidYMid meet">
<metadata>
Created by potrace 1.10, written by Peter Selinger 2001-2011
</metadata>
<g transform="translate(0.000000,56.000000) scale(0.100000,-0.100000)"
fill="#000000" stroke="none">
<path d="M1525 534 c-17 -26 -17 -79 -1 -114 6 -13 -3 -15 -62 -12 -62 4 -71
2 -99 -22 -46 -39 -53 -34 -53 38 0 56 -3 67 -22 80 -25 18 -75 21 -98 6 -11
-7 2 -10 43 -10 l57 0 0 -100 c0 -55 3 -100 7 -100 4 0 28 20 54 45 l46 46 65
-3 65 -3 -67 -60 -66 -60 75 -72 76 -72 -65 -1 -65 0 -58 55 c-32 30 -60 55
-62 55 -3 0 -5 -25 -5 -55 l0 -55 -52 0 -53 0 3 170 c2 104 -1 176 -7 187 -8
14 -10 7 -11 -34 0 -80 -5 -86 -48 -56 -35 23 -42 24 -165 21 -119 -3 -130 -5
-147 -25 -23 -28 -21 -28 -66 2 -32 22 -48 25 -119 25 -89 0 -95 3 -95 58 0
21 -2 24 -10 12 -5 -8 -10 -39 -10 -68 l0 -52 25 16 c19 12 43 15 104 13 67
-4 83 -8 105 -28 24 -22 26 -31 26 -105 -1 -117 -22 -136 -146 -136 -67 0 -81
3 -102 23 l-24 22 6 -22 c7 -22 5 -23 -43 -23 l-51 0 0 190 0 190 58 1 c41 0
51 3 37 9 -35 15 -81 11 -98 -8 -12 -13 -17 -36 -17 -74 0 -30 -3 -58 -6 -61
-4 -4 -20 5 -36 18 -28 24 -36 25 -155 25 l-125 0 -30 -30 c-26 -26 -30 -36
-25 -65 3 -19 1 -37 -4 -40 -5 -4 -9 -32 -9 -64 0 -50 4 -62 26 -85 27 -26 27
-26 178 -25 83 0 159 5 169 11 12 6 23 6 30 0 7 -5 77 -10 156 -11 129 -1 148
1 182 21 l37 21 28 -22 c25 -19 38 -21 171 -20 83 0 155 5 169 11 18 9 28 8
36 0 7 -7 31 -12 53 -12 44 0 75 22 75 53 0 24 9 21 58 -18 l44 -34 114 0
c114 1 135 6 146 41 3 9 15 4 37 -15 32 -26 36 -27 159 -27 110 0 131 3 161
21 l33 20 15 -20 c11 -16 25 -21 58 -21 61 0 75 17 75 95 0 70 14 95 55 95 41
0 55 -25 55 -95 0 -75 14 -95 66 -95 69 0 74 8 74 128 0 102 -1 109 -26 135
-38 41 -59 46 -208 45 -117 0 -137 -3 -151 -18 -16 -18 -18 -18 -48 1 -27 16
-51 19 -158 19 -118 0 -127 -1 -159 -25 l-34 -25 -8 21 c-6 15 -3 30 7 45 20
31 19 69 -2 105 -16 27 -22 29 -74 29 -50 0 -59 -3 -74 -26z m117 -11 c41 -37
10 -103 -47 -103 -38 0 -57 19 -57 55 0 55 64 85 104 48z m-1319 -144 c37 -17
47 -50 47 -159 l0 -100 -50 0 c-28 0 -50 5 -50 10 0 7 -6 7 -19 0 -32 -17
-183 -13 -209 6 -20 14 -23 23 -20 72 4 75 20 84 151 80 53 -2 97 -1 97 2 -1
32 -89 52 -130 30 -13 -7 -46 -14 -73 -16 -42 -4 -48 -2 -43 12 3 8 6 20 6 25
0 5 9 18 20 29 18 18 33 20 135 20 63 0 125 -5 138 -11z m793 -12 c26 -23 28
-29 32 -135 l5 -112 -51 0 c-31 0 -52 5 -55 13 -4 9 -7 9 -18 -1 -8 -8 -45
-12 -105 -12 -89 0 -93 1 -114 28 -28 35 -22 98 12 125 19 16 37 18 120 15 85
-3 98 -1 98 13 0 27 -103 42 -127 18 -6 -6 -35 -13 -63 -15 l-52 -4 6 27 c13
54 36 63 167 63 109 0 120 -2 145 -23z m534 -112 l0 -135 -50 0 -50 0 0 135 0
135 50 0 50 0 0 -135z m362 124 c11 -6 26 -26 34 -44 29 -69 10 -180 -34 -204
-12 -6 -76 -11 -147 -11 -120 0 -127 1 -150 25 -23 22 -25 32 -25 108 0 85 7
105 45 125 26 15 250 15 277 1z m178 -4 c0 -14 3 -13 25 1 19 12 43 15 101 12
69 -3 79 -6 100 -31 22 -26 24 -37 24 -133 l0 -104 -50 0 -50 0 0 83 c0 51 -5
88 -12 95 -18 18 -98 15 -120 -5 -14 -13 -18 -31 -18 -95 l0 -78 -52 0 -53 0
0 135 0 135 53 0 c40 0 52 -4 52 -15z m-669 -110 c0 -37 -2 -69 -5 -72 -8 -8
-66 40 -72 61 -5 15 3 28 31 54 20 18 39 32 41 29 3 -3 5 -35 5 -72z"/>
<path d="M120 211 c0 -15 9 -22 35 -27 45 -8 110 7 110 26 0 12 -17 16 -72 18
-67 3 -73 1 -73 -17z"/>
<path d="M894 218 c-10 -15 24 -38 57 -38 55 0 89 12 89 31 0 17 -8 19 -69 19
-42 0 -73 -5 -77 -12z"/>
<path d="M1802 298 c-16 -16 -15 -73 2 -87 9 -7 40 -11 78 -9 l63 3 0 50 0 50
-65 3 c-42 2 -70 -2 -78 -10z m116 -20 c20 -20 14 -47 -12 -54 -61 -15 -115
16 -87 50 16 19 82 21 99 4z"/>
<path d="M514 296 c-3 -7 -4 -31 -2 -52 l3 -39 75 0 75 0 0 50 0 50 -73 3
c-56 2 -74 0 -78 -12z m132 -32 c9 -36 -6 -46 -62 -42 -38 2 -50 7 -52 21 -7
37 5 47 57 47 46 0 51 -2 57 -26z"/>
</g>
</svg>
